<svg id="Layer_1" data-name="Layer 1" xmlns="http://www.w3.org/2000/svg" viewBox="0 0 915.89 184.77"><defs><style>.cls-1{fill:#427df4;}.cls-2{fill:#34b839;}.cls-3{fill:#ffda2b;}.cls-4{fill:#ea3235;}.cls-5{fill:#131a22;}</style></defs><title>Logo with Name1</title><path class="cls-1" d="M7185.4,7145.09a42.57,42.57,0,0,1,15.1,2.85,58.87,58.87,0,0,0,0,78.74,40.87,40.87,0,0,1-15.1,2.84c-22.86,0-41.45-18.93-41.45-42.21S7162.45,7145.09,7185.4,7145.09Z" transform="translate(-6726.32 -7099.5)"/><path class="cls-2" d="M7141.68,7237.88a44.74,44.74,0,0,1,2.8-15.38,56.27,56.27,0,0,0,77.31,0,42.92,42.92,0,0,1,2.79,15.38c0,23.28-18.58,42.21-41.45,42.21S7141.68,7261.16,7141.68,7237.88Z" transform="translate(-6726.32 -7099.5)"/><path class="cls-3" d="M7276.94,7189.35a45,45,0,0,1-2.79,15.38,56.28,56.28,0,0,0-77.32,0,43,43,0,0,1-2.79-15.38c0-23.28,18.59-42.21,41.45-42.21S7276.94,7166,7276.94,7189.35Z" transform="translate(-6726.32 -7099.5)"/><path class="cls-4" d="M7233.22,7282.76a42.55,42.55,0,0,1-15.09-2.85,58.9,58.9,0,0,0,0-78.74,40.85,40.85,0,0,1,15.09-2.84c22.86,0,41.45,18.93,41.45,42.21S7256.08,7282.76,7233.22,7282.76Z" transform="translate(-6726.32 -7099.5)"/><path class="cls-5" d="M6775.8,7115.76c38,0,57.33,16.53,57.33,49.06,0,34.93-20.16,53.86-57.33,53.86h-19.9v62.12h-29.58v-165Zm-.79,77.86c18.85,0,29.06-9.6,29.06-28.26,0-16.8-9.42-24.8-29.06-24.8h-19.37v53.06Z" transform="translate(-6726.32 -7099.5)"/><path class="cls-5" d="M6875.8,7225.61c2.62,20.8,13.35,30.93,33.25,30.93,11,0,19.89-3.47,29.05-11.2L6953,7265.6c-13.09,12.27-27.23,17.6-46.34,17.6-37.7,0-60.47-25.59-60.47-67.45,0-42.93,22.25-70.66,57.07-70.66,18.85,0,34.29,8.27,42.93,23.46,6,10.4,8.9,24,8.9,41.86a122.46,122.46,0,0,1-1.05,15.2Zm51.05-24c0-10.94-1.57-16.53-6-21.87-4.19-5.33-10.74-8-18.33-8-14.92,0-24.08,10.14-26.7,29.87Z" transform="translate(-6726.32 -7099.5)"/><path class="cls-5" d="M7032.08,7281.87c-34.81,0-52.88-18.66-52.88-55.46V7119.76H7008v27.73h42.67l-11,25.6H7008v52c0,20.53,8.38,29.86,27,29.86h12.31v26.93Z" transform="translate(-6726.32 -7099.5)"/><path class="cls-5" d="M7129.47,7146.43h3.66V7176h-3.66c-23.3,0-33.51,12-33.51,39.19v65.59h-28.8V7147.49h25.4v16C7100.41,7152.29,7113.24,7146.43,7129.47,7146.43Z" transform="translate(-6726.32 -7099.5)"/><path class="cls-5" d="M7357.74,7146.16c33.77,0,53.15,24.79,53.15,67.72,0,45.06-20.16,70.39-56,70.39-14.39,0-24.6-4-36.12-14.67v12.27h-25.4V7099.5h28.28v60.79C7332.35,7149.89,7341.51,7146.16,7357.74,7146.16Zm24.09,70.12c0-29.59-9.43-43.19-29.58-43.19-20.42,0-30.63,14.39-30.63,42.66s9.42,41.59,30.36,41.59C7372.67,7257.34,7381.83,7244.81,7381.83,7216.28Z" transform="translate(-6726.32 -7099.5)"/><path class="cls-5" d="M7488.11,7146.16c37.7,0,58.9,25.06,58.9,69.05,0,43.73-21.72,69.06-58.9,69.06s-58.9-25.6-58.9-69.06C7429.21,7171.22,7450.68,7146.16,7488.11,7146.16Zm0,111.18c19.9,0,29.85-13.6,29.85-40.53,0-28.79-10.21-43.72-29.85-43.72s-29.84,15.19-29.84,43.72C7458.27,7243.74,7468.22,7257.34,7488.11,7257.34Z" transform="translate(-6726.32 -7099.5)"/><path class="cls-5" d="M7623.63,7282.94c-34.82,0-52.88-18.67-52.88-55.46V7120.83h28.79v27.73h42.68l-11,25.59h-31.68v52c0,20.53,8.38,29.87,27,29.87h12.3v26.93Z" transform="translate(-6726.32 -7099.5)"/></svg>